<svg width="348" height="70" viewBox="0 0 348 70" fill="none" xmlns="http://www.w3.org/2000/svg">
<mask id="path-1-inside-1_38_344662" fill="white">
<rect width="348" height="69.1593" rx="2.51668"/>
</mask>
<rect width="348" height="69.1593" rx="2.51668" fill="#299E7F"/>
<rect width="348" height="69.1593" rx="2.51668" stroke="white" stroke-width="8.66439" mask="url(#path-1-inside-1_38_344662)"/>
<path d="M120.774 26.2211H122.754V28.201V30.181V32.1804V34.1603H120.774V36.1403H118.774V38.1397H116.795H114.815H112.815H110.835V40.1197V42.119V44.099H108.855H106.856V42.119V40.1197V38.1397V36.1403V34.1603V32.1804V30.181V28.201V26.2211V24.2217H108.855H110.835H112.815H114.815H116.795H118.774H120.774V26.2211ZM116.795 34.1603H118.774V32.1804V30.181V28.201H116.795H114.815H112.815H110.835V30.181V32.1804V34.1603H112.815H114.815H116.795ZM139.389 38.1397H141.389V40.1197V42.119V44.099H139.389H137.409H135.41H133.43H131.45H129.451H127.471H125.491V42.119V40.1197V38.1397V36.1403V34.1603V32.1804V30.181V28.201V26.2211V24.2217H127.471H129.451V26.2211V28.201V30.181V32.1804V34.1603V36.1403V38.1397V40.1197H131.45H133.43H135.41H137.409V38.1397H139.389ZM158.044 28.201H160.024V30.2004V32.1804V34.1603V36.1597V38.1397V40.1197V42.119V44.099H158.044H156.064V42.119V40.1197V38.1397H154.064H152.084H150.085H148.105V40.1197V42.119V44.099H146.125H144.126V42.119V40.1197V38.1397V36.1597V34.1603V32.1804V30.2004V28.201H146.125V26.2211H148.105V24.2217H150.085H152.084H154.064H156.064V26.2211H158.044V28.201ZM156.083 32.161V30.181H154.084V28.1816H152.104H150.105V30.181H148.125V32.161V34.1409H150.105H152.104H154.084H156.083V32.161ZM176.679 24.2217H178.659V26.2211V28.201V30.181V32.1804H176.679V34.1603H174.679V36.1403H172.699V38.1397V40.1197V42.119V44.099H170.719H168.72V42.119V40.1197V38.1397V36.1403H166.74V34.1603H164.76V32.1804H162.761V30.181V28.201V26.2211V24.2217H164.76H166.74V26.2211V28.201V30.181H168.72V32.1804H170.719H172.699V30.181H174.679V28.201V26.2211V24.2217H176.679ZM201.933 24.2023H203.913V26.2017V28.1816V30.181V32.161V34.1409V36.1403V38.1203V40.1002V42.0996V44.0796H201.933H199.953H197.954H195.974V42.0996H193.994V40.1002V38.1203V36.1403V34.1409V32.161V30.181V28.1816V26.2017H191.994V28.1816V30.181V32.161V34.1409V36.1403V38.1203V40.1002V42.0996V44.0796H190.014H188.034V42.0996V40.1002V38.1203V36.1403V34.1409V32.161V30.181V28.1816V26.2017V24.2023H190.014H191.994H193.994H195.974V26.2017H197.954V28.1816V30.181V32.161V34.1409V36.1403V38.1203V40.1002V42.0996H199.953V40.1002V38.1203V36.1403V34.1409V32.161V30.181V28.1816V26.2017V24.2023H201.933ZM220.549 26.2211H222.529V28.201V30.181V32.1804V34.1603V36.1403V38.1397V40.1197V42.119H220.549V44.099H218.569H216.569H214.589H212.59H210.61H208.63V42.119H206.631V40.1197V38.1397V36.1403V34.1603V32.1804V30.181V28.201V26.2211H208.63V24.2217H210.61H212.59H214.589H216.569H218.569H220.549V26.2211ZM218.569 30.181V28.201H216.569H214.589H212.59H210.61V30.181V32.1804V34.1603V36.1403V38.1397V40.1197H212.59H214.589H216.569H218.569V38.1397V36.1403V34.1603V32.1804V30.181ZM239.164 24.2217H241.144V26.2211V28.201V30.181V32.1804V34.1603V36.1403V38.1397V40.1197V42.119V44.099H239.164H237.184V42.119H235.185V40.1197H233.205H231.225V42.119H229.226V44.099H227.246H225.266V42.119V40.1197V38.1397V36.1403V34.1603V32.1804V30.181V28.201V26.2211V24.2217H227.246H229.226V26.2211V28.201V30.181V32.1804V34.1603V36.1403V38.1397H231.225V36.1403V34.1603V32.1804V30.181V28.201V26.2211H233.205H235.185V28.201V30.181V32.1804V34.1603V36.1403V38.1397H237.184V36.1403V34.1603V32.1804V30.181V28.201V26.2211V24.2217H239.164Z" fill="white"/>
</svg>
